SplineFontDB: 3.0
FontName: GraftFille
FullName: Graft Fill
FamilyName: Graft Fill
Weight: Normal
Copyright: (C) Copyright 1997-2015 Terrence Curran - grilledcheese.com
Version: 2016-01-29
ItalicAngle: 0
UnderlinePosition: -113
UnderlineWidth: 20
Ascent: 800
Descent: 200
InvalidEm: 0
sfntRevision: 0x00010000
LayerCount: 2
Layer: 0 0 "Back" 1
Layer: 1 0 "Fore" 0
XUID: [1021 270 -1463357204 11991759]
UniqueID: 4225626
FSType: 4
OS2Version: 3
OS2_WeightWidthSlopeOnly: 0
OS2_UseTypoMetrics: 1
CreationTime: 1454098972
ModificationTime: 1454081720
PfmFamily: 81
TTFWeight: 400
TTFWidth: 5
LineGap: 0
VLineGap: 0
Panose: 0 0 0 0 0 0 0 0 0 0
OS2TypoAscent: 830
OS2TypoAOffset: 0
OS2TypoDescent: -477
OS2TypoDOffset: 0
OS2TypoLinegap: 0
OS2WinAscent: 1000
OS2WinAOffset: 0
OS2WinDescent: 0
OS2WinDOffset: 0
HheadAscent: 830
HheadAOffset: 0
HheadDescent: -477
HheadDOffset: 0
OS2SubXSize: 650
OS2SubYSize: 600
OS2SubXOff: 0
OS2SubYOff: 75
OS2SupXSize: 650
OS2SupYSize: 600
OS2SupXOff: 0
OS2SupYOff: 350
OS2StrikeYSize: 20
OS2StrikeYPos: 300
OS2CapHeight: 0
OS2XHeight: 0
OS2Vendor: 'gril'
OS2CodePages: 00000001.00000000
OS2UnicodeRanges: 00000000.00000000.00000000.00000000
Lookup: 258 0 0 "'kern' Horizontal Kerning in Latin lookup 0" { "'kern' Horizontal Kerning in Latin lookup 0 subtable"  } ['kern' ('latn' <'dflt' > ) ]
MarkAttachClasses: 1
DEI: 91125

StartChar: A
Encoding: 65 65 2
Width: 1038
Flags: W
HStem: -170 20
VStem: 353 35<86.5 125.5>
LayerCount: 2
Back
Fore
SplineSet
837 248 m 0
 916 248 956 196 956 93 c 0
 956 -82 855 -170 653 -170 c 0
 578 -170 515 -144 464 -91 c 0
 413 -38 388 27 388 102 c 0
 388 153 406 205 443 258 c 0
 477 308 517 346 563 372 c 0
 565 373 566 375 566 379 c 0
 566 388 562 392 555 392 c 0
 554 392 552 392 550 391 c 0
 487 363 437 320 401 261 c 0
 369 209 353 154 353 97 c 0
 353 76 356 51 363 21 c 1
 335 -2 296 -13 245 -13 c 0
 193 -13 148 -1 110 24 c 0
 66 53 44 92 45 141 c 0
 46 207 73 258 125 294 c 0
 162 320 197 333 229 333 c 0
 239 333 250 330 262 325 c 0
 274 320 280 318 281 318 c 0
 284 318 288 320 292 325 c 0
 297 330 299 333 299 335 c 0
 299 342 287 351 263 361 c 1
 264 378 276 419 297 482 c 0
 318 543 332 580 339 593 c 0
 362 634 375 659 381 667 c 0
 399 694 420 713 442 726 c 0
 494 755 553 770 618 770 c 0
 648 770 663 767 663 760 c 0
 663 751 647 735 614 711 c 0
 596 698 586 691 584 688 c 0
 606 659 629 602 654 517 c 0
 678 436 690 374 691 333 c 1
 666 327 646 317 629 304 c 0
 629 301 635 292 648 277 c 1
 671 302 699 312 730 309 c 0
 753 307 763 295 762 274 c 1
 751 271 732 264 706 251 c 0
 681 239 668 231 668 228 c 0
 668 226 671 221 675 214 c 0
 680 207 684 203 686 204 c 0
 744 233 794 248 837 248 c 0
EndSplineSet
EndChar

StartChar: B
Encoding: 66 66 3
Width: 838
Flags: W
HStem: -185 20
VStem: 257 44<402.5 412>
LayerCount: 2
Back
Fore
SplineSet
783 94 m 0
 783 73 781 58 781 48 c 0
 780 -17 735 -80 644 -140 c 0
 594 -173 547 -188 504 -184 c 0
 454 -179 401 -163 344 -135 c 0
 303 -115 260 -83 215 -40 c 0
 205 -31 196 -26 189 -26 c 0
 183 -26 179 -29 177 -34 c 0
 175 -39 176 -44 179 -47 c 0
 184 -56 192 -69 203 -86 c 1
 171 -99 144 -105 122 -105 c 0
 105 -105 96 -97 96 -80 c 0
 96 -63 105 -27 125 27 c 0
 136 57 146 88 154 122 c 0
 161 153 168 185 176 216 c 0
 181 237 184 259 184 284 c 0
 184 340 171 402 146 471 c 0
 125 528 103 574 79 607 c 0
 62 631 54 649 55 661 c 0
 56 667 62 675 75 684 c 0
 84 690 94 696 103 702 c 0
 123 716 140 723 156 723 c 0
 167 723 175 718 179 709 c 0
 184 686 186 667 187 653 c 1
 254 731 345 770 460 770 c 0
 475 770 489 769 503 768 c 0
 562 763 611 736 649 689 c 0
 685 644 703 592 703 532 c 0
 703 465 680 407 633 357 c 1
 588 359 540 358 489 353 c 0
 423 347 378 335 353 319 c 1
 341 321 330 329 320 343 c 0
 311 357 305 371 303 386 c 0
 302 393 301 399 301 406 c 0
 301 440 312 470 334 496 c 0
 377 548 418 573 455 573 c 0
 472 573 482 576 483 581 c 0
 485 588 474 598 451 609 c 0
 428 620 416 625 413 623 c 0
 385 602 365 588 354 580 c 0
 330 563 312 545 301 528 c 0
 293 516 283 493 269 459 c 0
 261 440 257 421 257 403 c 0
 257 374 267 346 286 320 c 0
 300 301 317 285 337 272 c 0
 338 271 339 272 340 275 c 0
 341 278 342 280 342 280 c 2
 342 277 342 274 342 271 c 1
 379 286 417 300 455 315 c 0
 484 323 527 325 582 320 c 0
 641 315 684 298 710 269 c 0
 759 214 784 155 783 94 c 0
EndSplineSet
EndChar

StartChar: C
Encoding: 67 67 4
Width: 844
Flags: W
HStem: 321 41<397.5 429>
LayerCount: 2
Back
Fore
SplineSet
604 419 m 1
 653 419 692 395 721 346 c 0
 746 305 759 258 759 207 c 0
 759 180 749 141 730 89 c 0
 711 38 693 0 675 -24 c 0
 644 -66 604 -99 555 -122 c 0
 507 -144 456 -156 402 -156 c 0
 355 -156 312 -148 272 -131 c 0
 221 -110 170 -60 118 20 c 0
 77 82 57 156 57 241 c 0
 57 374 92 492 164 594 c 0
 242 706 346 767 473 778 c 0
 507 781 539 763 569 726 c 0
 597 691 612 656 612 620 c 0
 612 569 592 514 551 456 c 0
 507 393 460 362 411 362 c 0
 378 362 351 371 331 389 c 0
 312 407 302 432 302 464 c 0
 302 487 308 509 319 528 c 0
 345 573 367 606 387 627 c 0
 400 641 406 650 406 655 c 0
 406 662 402 667 394 670 c 0
 386 673 381 674 378 671 c 0
 307 597 253 521 214 442 c 0
 197 409 189 376 189 345 c 0
 189 324 196 298 208 267 c 0
 224 228 242 209 264 208 c 0
 271 205 283 211 300 226 c 0
 317 241 330 247 340 244 c 0
 351 241 354 220 350 181 c 0
 349 169 353 163 364 163 c 0
 371 163 376 165 379 169 c 0
 387 180 391 198 391 222 c 0
 391 245 383 263 367 278 c 1
 370 292 375 307 381 323 c 1
 388 322 394 321 401 321 c 0
 457 321 511 351 563 412 c 1
 593 417 607 419 604 419 c 1
EndSplineSet
EndChar

StartChar: D
Encoding: 68 68 5
Width: 803
Flags: W
VStem: 184 65<-37 75>
LayerCount: 2
Back
Fore
SplineSet
214 83 m 1
 194 34 184 -3 184 -28 c 0
 184 -46 189 -60 199 -70 c 2
 213 -80 l 1
 194 -100 l 2
 186 -103 177 -104 167 -104 c 0
 144 -104 117 -98 86 -84 c 0
 82 -82 80 -78 80 -73 c 0
 80 -63 86 -42 99 -10 c 0
 108 11 117 32 125 53 c 0
 141 95 157 143 173 197 c 0
 180 219 183 247 183 281 c 0
 183 341 174 403 156 467 c 0
 137 536 114 585 86 615 c 0
 70 632 63 643 63 648 c 0
 65 665 78 683 103 702 c 0
 121 715 135 722 146 722 c 0
 153 722 158 719 162 713 c 0
 167 707 170 696 172 679 c 0
 173 667 174 655 175 643 c 1
 214 687 264 721 325 745 c 0
 381 767 433 777 481 772 c 0
 500 770 527 756 563 731 c 0
 600 706 623 682 635 660 c 0
 676 586 694 537 690 513 c 0
 664 368 647 271 636 221 c 0
 603 66 576 -19 553 -33 c 0
 516 -55 462 -66 391 -66 c 0
 328 -66 284 -58 260 -42 c 0
 254 -41 250 -22 249 15 c 0
 249 35 249 55 249 75 c 0
 248 77 246 78 242 78 c 0
 237 78 231 78 226 78 c 0
 218 78 214 80 214 83 c 1
EndSplineSet
EndChar

StartChar: E
Encoding: 69 69 6
Width: 892
Flags: W
HStem: -168 20 333 188<555 643.5> 531 28<469 477.5 469 480>
LayerCount: 2
Back
Fore
SplineSet
226 -74 m 0
 226 -85 241 -90 248 -95 c 1
 229 -104 213 -108 199 -108 c 0
 165 -108 148 -86 148 -43 c 0
 148 3 175 73 188 118 c 0
 199 155 207 189 212 222 c 0
 222 282 208 343 172 392 c 0
 133 446 100 481 78 505 c 0
 58 527 49 544 49 557 c 0
 49 586 90 625 171 674 c 0
 244 719 299 744 335 750 c 0
 417 763 467 770 486 770 c 0
 564 770 604 739 607 677 c 0
 608 658 604 629 595 590 c 0
 585 544 573 521 562 521 c 0
 548 521 533 533 515 528 c 1
 512 538 483 559 472 559 c 0
 466 559 455 556 438 550 c 0
 421 544 413 541 412 541 c 0
 399 541 381 543 359 548 c 0
 334 553 316 557 307 558 c 1
 302 513 297 483 292 470 c 1
 279 459 270 451 264 446 c 1
 271 437 279 432 286 431 c 1
 307 450 338 471 377 493 c 0
 422 519 455 531 475 531 c 0
 485 531 493 517 501 490 c 0
 507 467 511 449 511 435 c 0
 511 416 500 399 478 384 c 0
 459 371 433 360 402 353 c 0
 377 347 358 344 345 345 c 1
 343 336 348 329 359 322 c 1
 359 307 349 290 330 271 c 0
 311 253 302 242 302 237 c 0
 302 234 305 231 311 228 c 0
 315 226 319 224 324 222 c 1
 379 267 422 296 453 309 c 0
 492 325 545 333 612 333 c 0
 675 333 725 307 762 256 c 0
 796 209 810 153 807 88 c 0
 804 23 777 -36 726 -89 c 0
 675 -142 617 -168 552 -168 c 0
 473 -168 386 -141 292 -86 c 0
 270 -73 256 -64 250 -60 c 0
 240 -55 226 -62 226 -74 c 0
EndSplineSet
EndChar

StartChar: F
Encoding: 70 70 7
Width: 669
Flags: W
HStem: -170 20
LayerCount: 2
Back
Fore
SplineSet
523 755 m 0
 534 752 546 735 556 705 c 0
 567 675 573 644 573 611 c 0
 573 576 567 536 554 489 c 0
 538 431 519 400 497 397 c 0
 492 396 479 399 460 403 c 0
 444 407 435 408 432 409 c 0
 403 443 375 460 348 460 c 0
 343 460 337 460 332 459 c 0
 329 461 316 466 295 473 c 0
 281 478 269 485 260 495 c 1
 237 491 l 1
 228 446 223 422 223 421 c 0
 223 413 224 405 227 396 c 1
 210 385 200 371 197 356 c 1
 210 342 l 1
 241 373 262 393 272 401 c 0
 298 422 324 434 349 437 c 1
 377 428 401 409 421 378 c 0
 441 348 451 318 451 287 c 0
 451 279 437 268 409 253 c 0
 382 238 360 230 344 227 c 1
 328 240 316 250 308 257 c 1
 293 244 l 1
 385 151 431 76 431 21 c 0
 431 -4 426 -35 417 -72 c 1
 431 -87 l 1
 439 -80 445 -70 449 -57 c 1
 461 -64 468 -68 470 -69 c 1
 445 -92 400 -114 334 -137 c 0
 268 -159 217 -170 180 -170 c 0
 169 -170 161 -169 155 -166 c 0
 138 -159 130 -133 129 -89 c 0
 128 -49 134 -6 147 41 c 0
 156 76 165 100 174 115 c 0
 175 116 175 118 175 119 c 0
 175 123 168 129 153 136 c 0
 138 144 131 155 131 170 c 0
 131 181 135 195 143 210 c 0
 151 226 155 235 155 236 c 0
 155 243 150 247 139 246 c 1
 112 268 87 297 65 333 c 0
 40 373 28 408 28 438 c 0
 28 496 36 543 52 580 c 0
 71 624 105 661 153 691 c 0
 191 715 239 732 297 745 c 0
 348 756 398 762 447 762 c 0
 478 762 504 760 523 755 c 0
EndSplineSet
EndChar

StartChar: G
Encoding: 71 71 8
Width: 999
Flags: W
VStem: 625 32<520 528.5>
LayerCount: 2
Back
Fore
SplineSet
831 710 m 1
 891 686 921 661 921 636 c 0
 920 633 920 631 919 629 c 0
 896 625 882 615 875 600 c 1
 870 605 864 608 857 609 c 1
 842 594 l 1
 861 569 871 545 871 523 c 0
 871 487 855 449 823 410 c 0
 812 397 783 366 734 319 c 0
 705 291 690 270 690 256 c 0
 690 249 698 236 712 214 c 0
 751 155 776 115 787 95 c 0
 817 42 831 -4 831 -41 c 0
 831 -56 829 -70 824 -83 c 0
 793 -166 742 -231 672 -278 c 0
 605 -323 527 -348 436 -352 c 0
 345 -356 261 -327 185 -264 c 0
 106 -199 66 -121 66 -30 c 0
 66 50 99 117 163 173 c 0
 225 226 295 253 376 253 c 0
 413 253 440 251 457 247 c 0
 485 241 507 227 524 207 c 0
 544 182 557 168 561 164 c 1
 583 186 l 1
 579 198 576 206 573 210 c 0
 570 213 557 224 557 228 c 0
 557 236 562 240 571 240 c 0
 574 240 576 239 578 238 c 0
 597 215 607 202 610 201 c 0
 619 200 627 204 634 213 c 1
 633 228 628 243 618 258 c 0
 603 281 595 294 593 297 c 0
 596 300 608 311 629 330 c 0
 648 346 657 356 657 359 c 0
 657 368 652 373 641 373 c 0
 630 373 614 365 593 349 c 0
 576 336 562 323 552 312 c 1
 537 307 522 305 507 305 c 0
 471 305 442 320 419 351 c 0
 398 379 388 412 388 450 c 0
 388 489 401 527 428 564 c 0
 455 601 487 628 524 644 c 0
 569 663 612 673 652 673 c 0
 703 673 755 656 808 622 c 1
 833 638 l 1
 824 655 803 666 787 676 c 1
 795 699 810 710 831 710 c 1
631 419 m 0
 639 419 646 435 651 468 c 0
 655 492 657 512 657 528 c 0
 657 545 651 553 638 553 c 2
 635 553 l 2
 633 552 631 551 629 550 c 2
 624 545 l 1
 625 538 625 532 625 525 c 0
 625 515 624 500 621 480 c 0
 619 461 618 446 618 437 c 0
 618 430 622 424 631 419 c 0
EndSplineSet
EndChar

StartChar: H
Encoding: 72 72 9
Width: 851
Flags: W
HStem: -157 314 734 7 736 20G
VStem: 112 217 364 166<354 458>
LayerCount: 2
Back
Fore
SplineSet
602 324 m 0xb8
 655 324 699 307 733 273 c 0
 768 239 785 195 785 141 c 0
 785 4 747 -59 636 -133 c 1
 572 -163 457 -164 391 -140 c 0
 292 -104 292 -32 293 58 c 0
 293 121 314 184 354 247 c 0
 364 262 369 270 369 271 c 2
 369 271 368 272 367 275 c 0
 364 284 364 348 364 360 c 0
 361 377 355 386 347 386 c 0
 338 386 332 384 329 381 c 0
 329 375 339 284 334 272 c 0
 295 206 271 146 262 93 c 1
 214 76 177 67 151 67 c 0
 114 67 111 97 112 126 c 0
 112 140 111 194 108 288 c 0
 105 399 111 515 89 625 c 0
 79 676 68 712 56 734 c 1
 86 745 104 741 134 735 c 0
 155 731 174 729 191 729 c 0xd8
 201 729 222 738 253 756 c 1
 277 695 289 636 289 580 c 0
 289 571 276 549 250 516 c 0
 225 483 212 457 212 438 c 0
 212 427 217 422 227 422 c 0
 231 422 243 441 264 479 c 1
 283 504 297 521 308 530 c 1
 315 555 341 573 387 583 c 1
 430 585 461 582 482 573 c 0
 498 566 511 547 520 515 c 0
 527 490 530 468 530 448 c 0
 530 416 526 371 517 312 c 0
 512 275 499 202 499 164 c 0
 499 150 524 161 534 161 c 1
 539 229 544 278 549 307 c 0
 551 316 593 324 602 324 c 0xb8
EndSplineSet
EndChar

StartChar: I
Encoding: 73 73 10
Width: 564
Flags: W
HStem: -150 901<114.5 358> 462 223
VStem: 58 422<24.5 319.5> 358 76
LayerCount: 2
Back
Fore
SplineSet
358 751 m 1x50
 385 740 403 729 414 716 c 0
 427 700 434 677 434 647 c 0
 434 559 391 503 305 479 c 0
 262 467 236 462 226 462 c 0
 210 462 188 467 161 475 c 0
 130 484 110 496 99 511 c 0
 71 551 84 620 109 658 c 0
 128 687 152 702 181 702 c 0
 224 702 240 677 302 688 c 0
 335 694 354 715 358 750 c 1
 358 751 l 1x50
475 359 m 0
 478 344 480 328 480 311 c 0
 480 239 459 169 437 102 c 1
 425 108 416 127 402 127 c 0
 397 127 379 117 379 113 c 0
 379 108 386 100 401 89 c 0
 448 53 472 17 472 -19 c 0
 472 -39 461 -60 438 -82 c 0
 415 -103 392 -115 367 -118 c 0
 346 -120 326 -132 305 -132 c 0
 244 -132 183 -150 122 -150 c 0
 107 -150 82 -96 77 -82 c 0
 64 -44 58 0 58 49 c 0
 58 100 78 312 119 346 c 0
 157 378 178 395 182 398 c 0
 224 427 309 441 359 441 c 0
 378 441 398 439 418 435 c 0
 446 429 465 404 475 359 c 0
EndSplineSet
EndChar

StartChar: J
Encoding: 74 74 11
Width: 693
Flags: W
HStem: 744 20G
LayerCount: 2
Back
Fore
SplineSet
524 764 m 1
 548 755 567 738 581 711 c 0
 593 688 598 662 598 635 c 0
 598 588 585 561 559 552 c 0
 537 545 515 536 492 528 c 0
 466 519 443 515 423 515 c 0
 371 515 318 536 318 596 c 0
 318 619 327 643 345 668 c 0
 377 712 388 711 435 710 c 0
 466 709 544 711 524 764 c 1
553 262 m 0
 571 217 568 227 577 187 c 0
 582 164 585 153 586 152 c 0
 586 79 560 10 509 -57 c 0
 454 -128 391 -164 320 -164 c 0
 288 -164 256 -162 224 -162 c 0
 115 -162 36 -59 36 42 c 0
 36 119 95 216 174 232 c 0
 210 239 262 251 292 223 c 0
 303 213 313 194 321 167 c 0
 324 157 332 138 347 111 c 0
 366 76 379 59 387 59 c 0
 398 59 404 61 404 65 c 0
 404 66 393 87 371 128 c 0
 355 157 337 213 335 248 c 0
 330 317 334 294 353 407 c 0
 353 426 360 441 374 450 c 0
 375 451 390 457 419 468 c 1
 462 475 498 478 539 478 c 0
 550 478 560 471 569 457 c 0
 576 446 580 435 580 424 c 0
 580 414 574 402 561 388 c 0
 548 375 536 365 524 359 c 1
 530 346 536 340 543 340 c 0
 549 340 558 345 571 356 c 1
 574 351 576 346 578 341 c 0
 578 323 565 305 538 286 c 0
 522 275 525 259 546 259 c 0
 547 259 548 260 550 261 c 0
 552 262 553 263 553 262 c 0
EndSplineSet
EndChar

StartChar: K
Encoding: 75 75 12
Width: 879
Flags: W
HStem: 742 20G<497.5 511>
VStem: 296 29
LayerCount: 2
Back
Fore
SplineSet
204 371 m 1
 303 474 357 559 365 624 c 1
 345 691 l 1
 351 704 l 1
 365 714 391 726 428 740 c 0
 466 755 491 762 504 762 c 0
 518 762 542 751 576 729 c 1
 583 710 587 697 588 690 c 0
 589 685 588 672 585 652 c 1
 554 614 524 576 493 538 c 0
 446 480 421 443 418 428 c 1
 434 419 l 1
 440 420 l 1
 461 442 478 462 493 481 c 1
 520 420 530 368 526 327 c 0
 520 266 504 193 478 107 c 1
 494 98 l 1
 501 100 l 1
 522 134 539 203 553 307 c 1
 565 313 584 316 611 316 c 0
 666 316 713 293 751 245 c 0
 786 201 803 150 803 93 c 0
 803 35 780 -16 734 -60 c 0
 696 -97 646 -126 584 -146 c 0
 549 -157 514 -163 479 -163 c 0
 385 -163 305 -128 238 -59 c 1
 231 -42 223 -24 216 -6 c 0
 208 15 205 34 207 49 c 0
 217 120 231 170 250 197 c 0
 259 210 279 229 310 254 c 0
 341 280 357 294 357 294 c 2
 358 295 358 297 358 299 c 0
 358 304 352 309 341 313 c 1
 325 307 l 1
 327 344 l 1
 314 360 l 1
 296 341 l 1
 297 329 296 313 293 292 c 1
 273 270 252 249 232 226 c 0
 209 201 196 174 191 148 c 2
 175 70 l 1
 141 63 115 59 98 56 c 1
 79 67 68 75 67 81 c 0
 78 170 81 257 77 341 c 0
 71 459 65 532 62 559 c 0
 53 600 46 630 40 650 c 1
 52 659 69 668 92 675 c 0
 155 695 143 687 204 687 c 0
 227 687 247 692 263 701 c 1
 275 643 281 596 281 561 c 0
 281 552 280 540 277 525 c 0
 275 510 274 498 274 491 c 1
 245 455 215 422 185 391 c 0
 184 389 184 387 184 386 c 0
 184 383 187 380 193 378 c 0
 199 376 203 374 204 371 c 1
EndSplineSet
EndChar

StartChar: L
Encoding: 76 76 13
Width: 933
Flags: W
HStem: 290 31<323 341.5 320.5 371.5>
LayerCount: 2
Back
Fore
SplineSet
328 82 m 0
 323 76 318 62 313 39 c 0
 311 29 307 13 303 -9 c 1
 271 -11 263 -6 237 18 c 0
 216 37 203 46 196 46 c 0
 185 46 148 -19 84 -19 c 0
 73 -19 64 -8 56 15 c 0
 50 34 46 50 46 64 c 0
 46 185 75 325 132 486 c 1
 143 479 151 476 154 476 c 0
 163 476 168 482 168 493 c 1
 168 493 153 508 123 537 c 0
 94 567 79 592 79 613 c 0
 79 626 96 645 129 669 c 0
 163 694 188 706 203 706 c 1
 271 737 322 753 356 753 c 0
 381 753 399 737 412 704 c 0
 421 679 426 651 426 619 c 0
 426 596 417 543 400 461 c 0
 382 374 369 329 360 325 c 0
 355 323 347 321 336 321 c 0
 305 321 267 309 224 286 c 1
 232 274 204 255 240 255 c 0
 251 255 292 290 354 290 c 0
 389 290 424 275 459 246 c 1
 492 248 469 276 459 287 c 1
 489 313 523 326 561 326 c 1
 558 326 649 314 694 314 c 0
 728 314 756 326 777 350 c 1
 801 318 817 293 824 276 c 0
 852 207 865 159 865 130 c 0
 865 86 839 13 813 -24 c 0
 783 -67 739 -99 680 -122 c 0
 593 -156 483 -170 400 -119 c 0
 359 -94 339 -63 339 -26 c 0
 339 9 348 47 365 90 c 1
 358 96 352 99 347 99 c 0
 340 99 333 93 328 82 c 0
EndSplineSet
EndChar

StartChar: M
Encoding: 77 77 14
Width: 1144
Flags: W
HStem: -199 20
VStem: 375 34 605 33<562.5 586.5 562.5 602>
LayerCount: 2
Back
Fore
SplineSet
876 241 m 0
 926 241 966 225 997 193 c 0
 1028 162 1046 121 1050 70 c 0
 1056 5 1041 -45 1006 -82 c 0
 991 -97 960 -118 912 -144 c 0
 870 -166 842 -180 828 -185 c 0
 801 -195 770 -199 735 -199 c 0
 692 -199 651 -194 612 -183 c 0
 537 -163 490 -128 490 -47 c 0
 490 10 518 94 575 205 c 0
 606 266 622 302 622 313 c 0
 622 318 620 323 615 326 c 0
 606 333 598 332 591 325 c 2
 516 189 l 1
 487 198 469 205 462 210 c 0
 422 238 404 272 410 312 c 0
 418 368 388 359 384 344 c 0
 378 324 375 307 375 292 c 0
 375 255 392 221 426 190 c 1
 409 145 397 108 390 78 c 1
 383 71 333 59 240 42 c 0
 155 27 94 16 56 9 c 1
 83 73 110 137 136 202 c 0
 166 277 189 342 205 397 c 1
 213 388 228 373 241 373 c 0
 248 373 251 377 251 385 c 0
 251 415 166 465 157 542 c 0
 152 580 170 619 208 659 c 0
 260 713 322 740 396 740 c 0
 449 740 497 724 542 693 c 0
 584 664 605 626 605 578 c 0
 605 544 594 505 572 461 c 0
 570 455 562 443 548 426 c 0
 534 409 524 399 517 395 c 0
 512 387 514 380 523 374 c 0
 529 370 544 378 568 397 c 1
 587 418 604 445 617 479 c 0
 631 514 638 547 638 578 c 0
 638 595 636 610 632 624 c 1
 682 653 746 669 825 674 c 0
 872 677 904 672 922 661 c 0
 930 656 934 649 934 641 c 0
 934 618 904 586 845 545 c 1
 834 567 824 578 813 578 c 0
 784 578 813 545 815 536 c 0
 826 509 831 478 831 445 c 0
 831 392 819 336 794 278 c 0
 788 269 722 179 722 169 c 0
 722 158 727 153 737 153 c 0
 746 153 761 170 785 202 c 0
 793 213 824 235 824 235 c 1
 825 236 l 1
 843 239 860 241 876 241 c 0
EndSplineSet
EndChar

StartChar: N
Encoding: 78 78 15
Width: 802
Flags: W
HStem: 742 20G
VStem: 207 33<147.5 163.5 125 187>
LayerCount: 2
Back
Fore
SplineSet
650 261 m 0
 687 248 706 210 706 147 c 0
 706 120 703 98 696 79 c 0
 683 42 668 12 651 -9 c 0
 636 -28 613 -48 581 -71 c 0
 549 -93 518 -104 489 -104 c 0
 448 -104 407 -100 367 -88 c 0
 324 -75 291 -42 268 9 c 0
 249 52 240 99 240 151 c 0
 240 176 256 241 248 258 c 1
 229 259 218 255 216 247 c 0
 210 227 207 202 207 172 c 0
 207 123 214 75 229 29 c 0
 246 -23 269 -58 297 -77 c 1
 290 -88 256 -94 244 -90 c 0
 221 -83 199 -79 178 -79 c 0
 142 -79 73 -109 52 -100 c 1
 52 -53 51 72 49 272 c 0
 48 409 49 482 52 493 c 0
 68 543 116 604 174 604 c 0
 205 604 235 586 266 550 c 0
 305 505 330 454 341 396 c 0
 344 381 319 309 313 292 c 0
 308 279 312 272 324 272 c 0
 331 272 337 276 342 284 c 0
 344 287 352 308 367 349 c 0
 382 390 391 417 395 430 c 0
 403 455 411 506 418 583 c 1
 425 586 457 573 457 603 c 0
 457 609 454 613 448 615 c 0
 422 622 380 623 380 660 c 0
 380 694 478 737 505 744 c 0
 570 760 610 766 622 760 c 1
 635 762 647 755 660 741 c 0
 703 695 694 632 683 576 c 0
 677 547 667 512 653 471 c 0
 631 406 619 373 618 373 c 0
 610 347 606 333 606 331 c 0
 606 322 610 317 617 315 c 0
 628 314 639 330 650 363 c 1
 675 351 687 340 687 330 c 0
 687 314 639 297 626 292 c 1
 627 277 635 266 650 261 c 0
EndSplineSet
EndChar

StartChar: O
Encoding: 79 79 16
Width: 743
Flags: W
HStem: -158 908<262 371.5>
VStem: 62 594<274.5 533>
LayerCount: 2
Back
Fore
SplineSet
561 647 m 0
 598 604 622 555 634 502 c 0
 647 444 656 366 656 306 c 0
 656 243 642 173 613 97 c 0
 585 22 551 -36 511 -76 c 0
 469 -119 436 -140 412 -140 c 0
 370 -140 327 -158 270 -158 c 0
 254 -158 231 -146 201 -123 c 0
 175 -103 160 -89 155 -80 c 0
 132 -36 115 24 102 99 c 1
 134 316 l 2
 135 331 128 359 114 402 c 1
 79 448 62 489 62 525 c 0
 62 541 80 615 90 624 c 0
 115 649 159 677 221 706 c 0
 284 735 329 750 357 750 c 0
 386 750 434 746 460 733 c 0
 466 733 522 692 561 647 c 0
EndSplineSet
EndChar

StartChar: P
Encoding: 80 80 17
Width: 847
Flags: W
HStem: -438 1140
VStem: 60 690
LayerCount: 2
Back
Fore
SplineSet
307 529 m 1
 308 537 232 590 219 599 c 1
 219 611 226 625 241 639 c 0
 253 650 265 660 277 671 c 0
 287 680 303 687 324 693 c 0
 345 699 364 702 379 702 c 0
 394 702 401 686 401 654 c 0
 401 640 378 639 395 620 c 0
 408 606 432 624 447 629 c 0
 475 639 494 645 505 647 c 0
 523 650 540 652 556 652 c 0
 609 652 655 633 693 594 c 0
 731 555 750 509 750 456 c 0
 750 413 730 368 690 320 c 0
 655 278 609 256 554 254 c 0
 480 251 425 288 424 288 c 0
 416 288 410 283 406 274 c 1
 475 215 526 173 558 145 c 0
 602 106 636 58 664 5 c 0
 679 -24 687 -56 687 -93 c 0
 687 -140 675 -188 651 -235 c 0
 619 -300 573 -351 512 -388 c 0
 451 -424 385 -442 314 -438 c 0
 235 -434 173 -409 128 -366 c 0
 80 -321 57 -260 60 -184 c 0
 61 -153 68 -121 81 -86 c 0
 96 -47 114 -17 137 4 c 0
 178 42 241 61 324 61 c 0
 347 61 358 72 358 93 c 0
 358 94 358 95 357 98 c 0
 357 119 363 129 387 129 c 0
 402 129 434 115 434 140 c 0
 434 155 418 178 386 209 c 0
 347 246 316 273 295 293 c 0
 252 333 231 362 231 381 c 0
 231 426 256 476 307 529 c 1
EndSplineSet
EndChar

StartChar: Q
Encoding: 81 81 18
Width: 910
Flags: W
VStem: 238 29<535.5 545.5>
LayerCount: 2
Back
Fore
SplineSet
644 158 m 0
 706 158 756 130 794 75 c 0
 828 26 844 -32 844 -97 c 0
 844 -223 810 -312 741 -363 c 0
 683 -405 591 -426 464 -426 c 0
 391 -426 320 -405 251 -363 c 0
 172 -315 133 -256 133 -187 c 0
 133 -143 146 -96 172 -45 c 0
 204 18 255 85 325 157 c 0
 382 216 411 249 411 255 c 0
 411 264 395 287 363 322 c 0
 331 357 311 376 304 377 c 0
 299 378 292 376 283 371 c 0
 274 367 271 363 274 358 c 0
 277 351 287 341 304 326 c 1
 284 311 259 303 228 303 c 0
 180 303 138 319 103 351 c 0
 66 385 49 426 52 474 c 0
 57 545 88 603 145 647 c 0
 189 681 240 699 298 699 c 0
 347 699 393 672 406 672 c 1
 425 687 441 701 453 715 c 1
 474 706 497 681 522 640 c 1
 507 640 493 634 480 623 c 0
 467 613 460 600 459 587 c 1
 471 573 484 577 492 591 c 1
 500 578 504 561 504 540 c 0
 504 515 498 487 486 458 c 0
 473 427 458 406 441 395 c 1
 435 398 419 412 414 412 c 0
 407 412 394 397 401 388 c 0
 420 364 517 316 516 287 c 0
 516 268 508 251 491 235 c 0
 480 225 429 185 429 171 c 0
 429 161 433 156 442 156 c 0
 448 156 462 167 484 190 c 1
 499 189 507 186 510 181 c 0
 513 176 500 159 471 130 c 1
 481 113 490 100 499 91 c 1
 544 136 593 158 644 158 c 0
261 442 m 0
 269 442 275 443 280 446 c 1
 280 457 278 472 273 492 c 0
 269 513 267 528 267 539 c 0
 267 556 271 582 280 618 c 1
 272 618 266 621 258 621 c 1
 254 616 250 605 245 586 c 0
 240 568 238 552 238 539 c 0
 238 532 240 516 245 489 c 0
 250 458 256 442 261 442 c 0
EndSplineSet
EndChar

StartChar: R
Encoding: 82 82 19
Width: 1041
Flags: W
HStem: 749 20G
VStem: 451 34 687 37
LayerCount: 2
Back
Fore
SplineSet
485 169 m 1
 487 204 l 2
 488 217 483 224 472 224 c 0
 460 224 453 216 451 199 c 0
 452 186 450 169 447 146 c 1
 428 125 408 105 389 84 c 0
 368 61 356 35 351 10 c 2
 335 -68 l 1
 333 -68 l 1
 278 -76 236 -82 207 -85 c 1
 174 -98 145 -105 122 -105 c 0
 105 -105 96 -97 96 -80 c 0
 96 -24 143 70 153 137 c 0
 162 194 174 252 174 310 c 0
 174 409 138 526 79 607 c 0
 62 631 54 649 55 661 c 0
 59 697 138 744 172 744 c 0
 191 744 174 684 175 664 c 1
 214 697 264 723 323 742 c 0
 381 761 442 772 503 768 c 0
 522 767 551 754 588 730 c 0
 625 707 650 685 661 664 c 0
 682 627 692 584 692 535 c 0
 692 526 691 519 690 513 c 0
 677 439 650 389 609 362 c 1
 568 364 524 361 477 355 c 0
 419 347 378 336 353 319 c 1
 328 323 308 372 293 467 c 1
 284 435 279 415 277 408 c 0
 270 385 271 359 281 330 c 0
 292 296 315 279 349 279 c 0
 364 279 383 282 406 288 c 0
 461 303 524 324 581 324 c 0
 590 324 598 324 606 323 c 0
 631 320 651 303 668 270 c 0
 683 241 689 213 687 188 c 0
 681 128 665 56 639 -29 c 1
 643 -42 647 -48 652 -48 c 0
 655 -48 658 -47 662 -44 c 2
 666 -41 l 2
 670 -38 675 -36 680 -34 c 0
 693 -11 705 32 715 97 c 0
 724 157 727 204 724 239 c 1
 730 242 738 243 748 242 c 0
 765 240 773 239 772 239 c 1
 820 239 863 220 899 180 c 0
 961 112 976 -34 947 -117 c 0
 906 -235 774 -298 654 -298 c 0
 548 -298 463 -265 398 -198 c 1
 391 -180 383 -163 376 -145 c 0
 367 -123 365 -104 367 -89 c 0
 377 -18 391 31 410 58 c 0
 419 71 442 90 477 116 c 0
 502 135 552 161 522 169 c 0
 503 174 506 175 485 169 c 1
EndSplineSet
EndChar

StartChar: S
Encoding: 83 83 20
Width: 920
Flags: W
HStem: 287 39
VStem: 43 780
LayerCount: 2
Back
Fore
SplineSet
580 82 m 0
 575 93 568 99 561 99 c 0
 556 99 550 96 543 90 c 1
 560 47 569 9 569 -26 c 0
 569 -63 549 -94 508 -119 c 0
 425 -170 315 -156 228 -122 c 0
 169 -99 125 -67 95 -24 c 0
 68 14 43 84 43 130 c 0
 43 159 57 207 84 276 c 1
 103 309 119 334 131 350 c 1
 152 326 180 314 214 314 c 0
 300 314 372 354 449 287 c 1
 448 285 l 1
 437 272 432 265 432 262 c 0
 432 252 438 247 449 246 c 1
 484 275 520 290 557 290 c 1
 559 294 560 298 560 303 c 0
 560 343 497 372 371 392 c 0
 316 400 269 415 230 436 c 0
 171 467 142 506 142 555 c 0
 142 616 148 657 162 679 c 0
 187 720 217 746 252 760 c 0
 303 780 363 791 434 791 c 0
 495 791 546 782 586 764 c 0
 626 746 668 717 712 678 c 0
 729 663 749 655 770 655 c 0
 794 655 820 678 823 668 c 0
 824 663 820 647 811 620 c 0
 803 593 798 576 794 569 c 0
 759 504 728 464 702 449 c 1
 653 435 l 1
 635 448 594 470 529 503 c 0
 465 536 423 556 402 564 c 0
 391 564 385 559 385 550 c 0
 385 541 389 530 398 516 c 1
 567 457 689 359 763 224 c 0
 776 200 837 48 814 37 c 0
 799 32 784 30 771 30 c 0
 754 30 739 34 724 41 c 0
 701 52 688 34 671 18 c 0
 645 -6 637 -11 605 -9 c 1
 596 43 587 73 580 82 c 0
EndSplineSet
EndChar

StartChar: T
Encoding: 84 84 21
Width: 859
Flags: W
HStem: 751 20G
LayerCount: 2
Back
Fore
SplineSet
785 178 m 0
 785 140 768 93 734 38 c 0
 705 -8 676 -44 646 -71 c 0
 601 -111 511 -144 451 -144 c 0
 301 -144 227 -111 188 46 c 0
 169 121 169 145 184 217 c 0
 192 254 198 272 202 272 c 0
 207 272 277 314 284 319 c 1
 284 330 276 352 263 352 c 0
 221 352 191 308 153 289 c 0
 125 275 102 268 84 268 c 0
 59 268 47 286 46 322 c 0
 45 379 42 412 58 466 c 0
 68 499 81 521 97 531 c 0
 145 554 183 571 211 581 c 1
 224 591 235 600 244 608 c 1
 237 615 234 620 234 625 c 0
 244 665 268 699 294 729 c 0
 312 749 323 758 328 758 c 0
 329 758 330 758 331 757 c 0
 339 753 359 770 373 771 c 1
 378 766 381 761 381 758 c 0
 381 753 363 704 360 699 c 1
 366 693 373 690 382 690 c 0
 393 690 403 715 415 715 c 0
 422 715 426 712 426 707 c 0
 426 706 425 703 424 699 c 0
 411 694 405 686 405 677 c 0
 405 668 410 664 419 664 c 0
 424 664 431 666 437 670 c 2
 491 707 l 2
 505 713 515 716 520 716 c 0
 527 716 532 713 537 709 c 0
 550 697 557 654 557 580 c 0
 557 567 550 555 550 542 c 1
 539 517 511 492 468 469 c 0
 434 451 400 433 365 416 c 1
 360 401 358 385 358 366 c 0
 358 353 364 347 375 347 c 0
 376 347 391 356 419 373 c 0
 471 405 496 419 560 419 c 0
 600 419 638 405 673 376 c 1
 742 339 785 255 785 178 c 0
EndSplineSet
EndChar

StartChar: U
Encoding: 85 85 22
Width: 999
Flags: W
HStem: 747 20G
VStem: 416 34
LayerCount: 2
Back
Fore
SplineSet
753 760 m 0
 796 755 832 722 863 662 c 0
 892 605 911 537 911 473 c 0
 911 358 853 265 732 201 c 0
 671 169 625 151 598 141 c 1
 600 135 617 117 624 117 c 0
 640 117 664 125 697 140 c 1
 672 85 660 30 660 -25 c 0
 660 -39 673 -70 693 -120 c 0
 698 -133 706 -160 682 -160 c 1
 685 -160 650 -161 575 -162 c 0
 530 -163 493 -162 466 -160 c 0
 447 -159 437 -150 437 -134 c 0
 437 -121 472 -108 472 -89 c 0
 472 -88 470 -84 467 -77 c 1
 460 -78 451 -83 440 -91 c 0
 390 -127 362 -144 356 -144 c 0
 299 -144 242 -141 185 -141 c 0
 154 -141 126 -121 100 -82 c 0
 83 -57 71 -27 62 8 c 0
 55 38 52 64 54 87 c 0
 61 168 93 244 117 320 c 0
 126 349 130 395 130 458 c 0
 130 497 127 524 122 539 c 0
 118 550 100 586 88 586 c 0
 83 586 78 583 73 577 c 1
 78 564 83 555 86 549 c 1
 76 545 34 546 34 560 c 0
 34 579 45 601 68 624 c 0
 100 657 152 691 223 723 c 0
 255 737 331 773 368 766 c 0
 375 765 384 753 394 732 c 0
 405 711 411 692 413 675 c 0
 415 648 416 582 416 477 c 0
 416 430 408 362 392 274 c 0
 373 168 351 96 325 57 c 0
 319 48 326 27 352 46 c 0
 377 64 399 121 419 216 c 0
 437 303 448 389 450 475 c 0
 452 555 449 624 441 683 c 1
 508 738 584 766 668 766 c 0
 693 766 721 764 753 760 c 0
EndSplineSet
EndChar

StartChar: V
Encoding: 86 86 23
Width: 1035
Flags: W
HStem: -157 909
VStem: 36 60
LayerCount: 2
Back
Fore
SplineSet
717 752 m 0
 790 755 848 734 892 688 c 0
 937 642 959 582 959 508 c 0
 959 423 940 360 902 318 c 0
 864 277 802 252 716 244 c 1
 718 255 724 269 733 284 c 0
 740 297 748 309 756 322 c 1
 751 328 747 331 742 331 c 0
 728 331 707 299 679 234 c 0
 654 176 639 132 633 102 c 2
 587 -134 l 1
 570 -129 553 -127 537 -127 c 0
 517 -127 492 -131 461 -140 c 0
 427 -149 401 -155 383 -157 c 0
 376 -158 366 -140 352 -105 c 0
 342 -79 335 -56 330 -37 c 0
 213 298 145 474 124 493 c 0
 122 494 120 495 117 495 c 0
 112 495 107 493 102 489 c 0
 89 479 98 466 105 454 c 1
 59 455 36 466 36 489 c 0
 36 500 55 520 93 547 c 0
 139 580 199 615 273 653 c 0
 343 689 386 707 401 707 c 0
 427 707 449 650 479 538 c 2
 501 457 l 2
 515 407 521 378 521 371 c 0
 521 370 504 344 471 293 c 0
 435 238 415 203 410 188 c 1
 423 180 431 176 436 176 c 0
 441 179 447 188 455 202 c 0
 513 299 548 358 560 378 c 1
 528 495 502 581 483 636 c 1
 547 710 625 748 717 752 c 0
EndSplineSet
EndChar

StartChar: W
Encoding: 87 87 24
Width: 1443
Flags: W
HStem: -201 20
LayerCount: 2
Back
Fore
SplineSet
1293 656 m 0
 1347 611 1374 547 1374 463 c 0
 1374 379 1355 316 1317 274 c 0
 1279 232 1217 207 1131 199 c 1
 1134 211 1139 225 1148 240 c 0
 1155 252 1163 264 1171 277 c 1
 1165 284 1158 288 1149 288 c 0
 1135 288 1114 256 1086 190 c 0
 1062 132 1047 88 1041 57 c 2
 996 -175 l 1
 979 -171 964 -169 949 -169 c 0
 930 -169 905 -173 875 -183 c 0
 842 -193 817 -200 798 -201 c 0
 782 -202 750 -101 745 -82 c 0
 724 51 703 129 682 153 c 1
 689 180 700 209 714 240 c 0
 722 258 737 285 756 322 c 1
 751 328 747 331 742 331 c 0
 728 331 707 299 679 234 c 0
 654 176 639 132 633 102 c 2
 587 -135 l 1
 481 -143 413 -150 383 -157 c 0
 365 -159 334 -70 328 -53 c 0
 209 293 138 474 118 493 c 0
 106 502 95 492 95 478 c 0
 95 473 98 465 105 454 c 1
 59 455 36 466 36 489 c 0
 36 500 55 520 93 547 c 0
 139 580 199 615 273 653 c 0
 343 689 386 707 401 707 c 0
 427 707 452 651 479 538 c 0
 491 487 498 460 498 459 c 0
 435 379 403 326 403 301 c 0
 403 290 407 286 415 291 c 0
 424 303 432 315 439 326 c 0
 450 352 505 420 604 531 c 0
 704 642 761 698 775 698 c 0
 792 698 814 670 844 614 c 0
 870 564 887 525 895 494 c 2
 916 412 l 2
 929 362 936 334 936 327 c 0
 936 326 919 300 886 248 c 0
 851 193 830 158 825 144 c 1
 838 136 846 132 851 131 c 1
 860 142 877 168 902 209 c 0
 938 269 962 308 973 326 c 1
 943 443 919 528 902 583 c 1
 968 659 1045 698 1132 702 c 0
 1200 705 1253 690 1293 656 c 0
EndSplineSet
EndChar

StartChar: X
Encoding: 88 88 25
Width: 981
Flags: W
HStem: 748 20G
LayerCount: 2
Back
Fore
SplineSet
498 466 m 1
 496 469 l 2
 484 488 465 478 465 465 c 0
 465 452 481 420 512 371 c 0
 541 326 565 293 584 272 c 1
 569 260 558 246 553 231 c 1
 559 224 564 220 569 220 c 0
 571 220 579 227 593 242 c 0
 608 257 625 268 644 274 c 0
 651 276 659 270 670 257 c 1
 641 237 624 219 620 202 c 1
 625 199 633 196 642 193 c 1
 667 234 703 255 752 255 c 0
 799 255 837 238 866 204 c 0
 896 170 911 129 911 81 c 0
 911 25 888 -29 842 -82 c 0
 794 -137 742 -165 687 -165 c 0
 600 -165 546 -162 525 -156 c 0
 476 -143 435 -109 403 -52 c 0
 366 14 347 86 347 164 c 0
 347 234 365 289 400 330 c 1
 400 346 387 347 376 341 c 0
 342 311 323 274 319 229 c 1
 311 223 300 208 286 183 c 0
 267 150 257 132 256 131 c 0
 254 128 113 123 94 123 c 0
 53 123 33 126 32 131 c 0
 31 154 85 229 192 354 c 0
 203 367 284 455 287 465 c 0
 287 476 274 478 265 476 c 1
 224 433 l 1
 204 449 181 480 155 525 c 0
 129 571 116 604 116 625 c 0
 116 633 141 657 191 699 c 0
 239 739 269 763 282 768 c 1
 288 765 305 744 333 706 c 0
 361 668 376 645 378 636 c 1
 370 621 364 609 360 601 c 1
 365 597 385 580 389 591 c 0
 411 648 445 691 492 718 c 0
 503 725 540 728 601 728 c 0
 651 728 690 726 717 722 c 1
 649 660 608 621 593 605 c 0
 550 560 519 513 498 466 c 1
EndSplineSet
EndChar

StartChar: Y
Encoding: 89 89 26
Width: 743
Flags: W
HStem: 298 206<487.5 515.5>
LayerCount: 2
Back
Fore
SplineSet
683 749 m 1
 686 742 688 729 688 709 c 0
 688 666 675 619 650 566 c 0
 640 545 615 501 576 436 c 1
 541 481 512 504 491 504 c 0
 484 504 480 499 480 490 c 0
 480 487 492 477 515 461 c 0
 553 435 582 394 604 337 c 0
 623 286 633 236 633 185 c 0
 633 121 589 36 545 -9 c 0
 502 -52 454 -85 400 -108 c 0
 324 -140 317 -138 230 -138 c 0
 176 -138 132 -118 98 -78 c 0
 65 -40 49 5 49 57 c 0
 49 104 69 156 110 214 c 0
 153 275 199 313 249 329 c 0
 297 344 324 349 372 349 c 1
 425 338 468 320 501 295 c 1
 502 297 505 298 512 298 c 0
 519 298 522 301 522 307 c 0
 522 318 510 329 487 343 c 0
 469 353 453 362 437 367 c 1
 440 378 448 387 461 392 c 0
 468 393 471 396 471 401 c 0
 471 408 466 412 456 414 c 0
 440 414 425 400 410 373 c 1
 395 374 387 376 385 377 c 0
 350 404 316 442 281 491 c 0
 246 540 224 585 213 626 c 1
 239 642 346 704 368 704 c 0
 369 703 369 702 369 701 c 0
 388 677 410 639 437 625 c 0
 446 620 451 615 454 609 c 0
 452 588 451 576 451 575 c 0
 451 555 456 545 466 545 c 0
 474 545 480 557 485 581 c 0
 491 611 495 635 498 652 c 0
 503 684 508 710 511 730 c 1
 566 751 625 748 683 749 c 1
EndSplineSet
EndChar

StartChar: Z
Encoding: 90 90 27
Width: 1035
Flags: W
HStem: 299 34 741 20G<319.5 358.5>
LayerCount: 2
Back
Fore
SplineSet
423 56 m 0
 413 41 408 32 408 27 c 0
 408 24 413 19 422 12 c 1
 455 48 490 90 526 138 c 0
 563 187 587 217 599 230 c 0
 648 283 712 309 792 309 c 0
 810 309 840 300 881 283 c 0
 894 278 905 270 916 260 c 0
 936 242 949 215 953 176 c 0
 952 162 952 153 953 148 c 0
 940 105 919 68 892 35 c 0
 845 -22 822 -74 821 -123 c 1
 739 -117 657 -109 575 -112 c 2
 373 -120 l 2
 305 -123 239 -151 170 -151 c 0
 157 -151 108 -70 108 -53 c 0
 108 -2 128 51 172 105 c 0
 209 149 248 192 286 236 c 0
 307 255 322 269 333 280 c 1
 361 285 384 289 401 292 c 0
 426 297 459 299 499 299 c 0
 520 299 530 305 530 317 c 0
 530 331 507 336 460 333 c 0
 419 330 370 321 313 306 c 1
 350 339 369 364 369 381 c 0
 369 391 364 398 354 402 c 1
 344 400 338 398 335 395 c 0
 314 368 293 340 271 314 c 0
 245 282 219 261 194 248 c 1
 210 296 170 361 131 387 c 1
 104 415 89 434 83 445 c 0
 64 482 64 495 64 536 c 0
 64 583 88 629 137 675 c 0
 176 712 215 737 253 749 c 0
 279 757 306 761 333 761 c 0
 384 761 449 750 526 727 c 0
 606 703 661 689 744 709 c 0
 773 716 795 720 810 720 c 0
 824 720 831 719 831 716 c 0
 831 705 821 689 802 670 c 0
 783 652 773 639 773 634 c 0
 773 627 788 617 794 617 c 0
 805 617 814 622 824 631 c 0
 842 649 861 657 878 657 c 0
 893 657 900 651 900 640 c 0
 900 632 850 579 755 477 c 0
 736 457 725 438 715 425 c 0
 682 384 630 320 560 232 c 0
 488 142 442 83 423 56 c 0
EndSplineSet
EndChar

StartChar: bracketleft
Encoding: 91 91 28
Width: 424
Flags: W
HStem: 744 20G<198 233>
LayerCount: 2
Back
Fore
SplineSet
247 559 m 1
 244 572 239 578 231 578 c 0
 218 578 217 568 214 558 c 1
 220 527 223 510 223 505 c 0
 224 500 222 475 218 430 c 0
 215 390 213 317 191 211 c 0
 172 117 152 45 152 -6 c 0
 152 -7 158 -12 169 -21 c 1
 176 -21 181 -14 184 1 c 0
 188 25 205 28 223 17 c 1
 246 14 263 1 277 -23 c 0
 285 -36 293 -58 300 -89 c 1
 294 -88 282 -87 265 -87 c 0
 258 -87 238 -98 205 -120 c 0
 177 -139 156 -153 121 -153 c 0
 108 -153 95 -146 83 -131 c 0
 53 -95 65 -53 85 -14 c 0
 97 9 111 31 123 53 c 0
 147 96 154 138 162 209 c 0
 169 268 187 343 191 403 c 0
 196 473 181 532 153 578 c 0
 140 599 112 631 112 655 c 0
 112 684 121 709 140 731 c 0
 159 753 183 764 213 764 c 0
 253 764 275 718 308 718 c 0
 318 718 328 722 338 722 c 1
 338 710 340 697 340 685 c 0
 340 665 330 641 310 613 c 0
 291 585 270 567 247 559 c 1
EndSplineSet
EndChar

StartChar: bracketright
Encoding: 93 93 29
Width: 411
Flags: W
HStem: 579 185
VStem: 67 228<650 691> 107 236<4.29497e+09 4.29497e+09>
LayerCount: 2
Back
Fore
SplineSet
161 559 m 1xc0
 138 567 116 585 96 613 c 0
 77 641 67 665 67 685 c 0
 67 697 70 710 70 722 c 1
 79 722 89 718 99 718 c 0
 111 718 126 726 144 741 c 0
 163 756 179 764 194 764 c 0
 225 764 250 753 269 730 c 0
 287 709 295 684 295 655 c 0
 295 645 291 631 280 615 c 0
 272 603 263 591 255 578 c 0
 227 532 212 473 217 403 c 0
 221 343 230 284 237 225 c 0
 245 154 261 96 285 53 c 0
 297 31 311 9 323 -14 c 0
 337 -41 343 -66 343 -88 c 0xa0
 343 -126 310 -153 274 -153 c 0
 259 -153 235 -142 202 -120 c 0
 167 -97 149 -80 107 -89 c 1
 115 -58 123 -36 130 -23 c 0
 143 1 161 14 184 17 c 0
 191 21 196 23 200 23 c 0
 213 23 221 16 224 1 c 0
 227 -14 232 -21 239 -21 c 1
 250 -12 255 -7 255 -6 c 0
 255 45 226 117 207 211 c 0
 185 317 192 390 189 430 c 0
 185 475 184 500 184 505 c 0
 184 510 187 527 193 558 c 1
 187 579 166 592 161 559 c 1xc0
EndSplineSet
EndChar

StartChar: exclam
Encoding: 33 33 30
Width: 308
Flags: W
HStem: -182 30 -19 33<129 145> -19 81<139.5 145>
VStem: 44 42 220 28
LayerCount: 2
Back
Fore
SplineSet
70 -155 m 0xd8
 106 -199 187 -185 220 -144 c 0
 257 -98 260 -50 211 -12 c 0
 189 5 166 14 142 14 c 0
 116 14 93 2 73 -21 c 0
 36 -64 33 -111 70 -155 c 0xd8
239 711 m 0
 244 711 257 715 278 724 c 1
 274 697 266 666 253 629 c 0
 249 616 237 585 218 536 c 0
 212 525 202 483 188 410 c 0
 173 334 166 280 166 249 c 0
 166 197 189 148 179 91 c 0
 175 72 166 62 151 62 c 0xb8
 128 62 117 96 118 164 c 0
 118 185 121 206 122 227 c 0
 127 304 119 360 116 395 c 0
 115 406 109 448 100 521 c 0
 91 588 87 626 87 635 c 0
 87 668 88 689 90 698 c 0
 95 723 105 736 122 736 c 0
 123 736 128 734 136 732 c 0
 183 718 217 711 239 711 c 0
134 -19 m 0
 156 -19 175 -24 191 -33 c 0
 230 -56 228 -102 197 -131 c 0
 183 -145 166 -152 148 -152 c 0
 127 -152 117 -148 103 -131 c 0
 81 -104 82 -79 97 -48 c 0
 107 -29 119 -19 134 -19 c 0
EndSplineSet
EndChar

StartChar: comma
Encoding: 44 44 31
Width: 393
Flags: W
HStem: -187 20
LayerCount: 2
Back
Fore
SplineSet
240 18 m 0
 257 0 266 -27 266 -62 c 0
 266 -119 244 -160 201 -187 c 1
 203 -171 192 -157 200 -153 c 0
 209 -149 213 -142 213 -131 c 1
 192 -105 l 1
 185 -113 174 -119 161 -124 c 0
 156 -126 145 -127 130 -127 c 0
 94 -127 76 -105 76 -60 c 0
 76 -27 86 -1 105 18 c 0
 124 37 150 47 181 47 c 0
 200 47 213 45 219 42 c 0
 228 32 234 24 240 18 c 0
EndSplineSet
EndChar

StartChar: period
Encoding: 46 46 32
Width: 341
Flags: W
HStem: -143 150
VStem: 82 142<-69 -59>
LayerCount: 2
Back
Fore
SplineSet
105 -18 m 0
 134 13 181 18 207 -19 c 0
 218 -34 224 -48 224 -60 c 0
 224 -78 214 -96 194 -115 c 0
 174 -134 155 -143 136 -143 c 0
 124 -143 112 -134 100 -116 c 0
 88 -97 82 -81 82 -67 c 0
 82 -51 90 -35 105 -18 c 0
EndSplineSet
EndChar

StartChar: question
Encoding: 63 63 33
Width: 641
Flags: W
HStem: -138 27 -5 34<309.5 316.5 301 349> -5 78<293 349> 210 291
VStem: 220 33 361 28
LayerCount: 2
Back
Fore
SplineSet
336 -130 m 0xdc
 349 -124 361 -112 372 -93 c 0
 390 -63 394 -42 382 -9 c 0
 376 7 369 17 360 19 c 0
 333 26 318 29 315 29 c 0
 287 29 264 20 245 2 c 1
 213 -20 215 -78 236 -107 c 0
 251 -128 269 -138 288 -138 c 0
 301 -138 317 -135 336 -130 c 0xdc
167 365 m 1
 156 395 143 430 130 459 c 0
 94 537 131 588 181 641 c 0
 291 758 448 743 539 619 c 1
 569 550 573 516 540 444 c 0
 510 380 437 360 378 333 c 1
 333 326 253 277 253 226 c 0
 253 217 256 205 261 188 c 0
 267 168 274 158 281 158 c 0
 313 166 351 210 397 210 c 0
 412 210 420 205 420 196 c 1
 419 196 419 196 419 195 c 0
 398 163 376 130 362 95 c 0
 353 81 331 74 295 73 c 0xbc
 291 73 289 75 289 78 c 0
 289 91 304 105 335 120 c 2
 362 133 l 1
 367 148 363 157 350 161 c 1
 331 154 312 148 293 141 c 0
 272 134 252 130 234 130 c 0
 203 130 188 147 188 182 c 0
 188 218 205 262 240 313 c 0
 277 369 303 406 317 424 c 0
 331 442 348 457 367 470 c 1
 380 473 380 472 389 485 c 1
 384 492 381 498 378 501 c 0
 364 498 348 489 330 473 c 0
 290 438 266 397 231 362 c 1
 219 371 198 372 167 365 c 1
317 -5 m 0
 381 -5 367 -87 328 -104 c 0
 305 -114 278 -115 264 -92 c 0
 248 -65 247 -35 276 -17 c 0
 288 -9 302 -5 317 -5 c 0
EndSplineSet
EndChar

